<svg
  viewBox="0 0 256 256"
  xmlns="http://www.w3.org/2000/svg"
>
  <path
    fill-rule="evenodd"
    clip-rule="evenodd"
    d="M110.344 36.2665L136.987 62.9096C147.701 73.6231 164.366 74.758 176.34 66.3141L149.697 39.6709C138.983 28.9574 122.318 27.8226 110.344 36.2665ZM198.355 44.9354L220.052 66.6322L238.025 84.606C238.119 84.7004 238.213 84.794 238.305 84.8876C239.457 86.0536 240.552 87.2548 241.591 88.4868C261.926 112.597 260.738 148.682 238.025 171.394L211.064 198.355L189.368 220.051L171.394 238.025C170.14 239.28 168.845 240.468 167.513 241.591C143.402 261.926 107.318 260.738 84.6061 238.025L57.6452 211.064L35.9483 189.368L17.9742 171.394C17.8806 171.3 17.7873 171.206 17.6945 171.112C16.5432 169.946 15.448 168.745 14.409 167.513C-5.92579 143.402 -4.73738 107.318 17.9742 84.606L44.9355 57.6451L66.6322 35.9484L84.6061 17.9742C84.6997 17.8806 84.794 17.7873 84.8876 17.6945C86.0536 16.5431 87.2549 15.448 88.4868 14.4091C112.597 -5.92579 148.682 -4.73741 171.394 17.9742L198.355 44.9354ZM66.3141 79.6598L39.671 106.303C28.9575 117.017 27.8226 133.682 36.2665 145.656L62.9096 119.013C73.6231 108.299 74.7579 91.6342 66.3141 79.6598ZM57.8026 167.828L57.6452 167.671L84.6061 140.71C107.318 117.998 108.507 81.9135 88.1716 57.8026L88.3288 57.6451L115.29 84.606C138.002 107.318 174.086 108.506 198.197 88.1715L198.355 88.3288L171.394 115.29C148.682 138.002 147.493 174.086 167.828 198.198L167.671 198.355L140.71 171.394C117.998 148.682 81.9136 147.493 57.8026 167.828ZM79.6599 189.686L106.303 216.329C117.017 227.043 133.682 228.177 145.656 219.733L119.013 193.09C108.299 182.376 91.6342 181.242 79.6599 189.686ZM189.686 176.34L216.329 149.696C227.043 138.983 228.177 122.318 219.733 110.344L193.09 136.987C182.376 147.701 181.242 164.366 189.686 176.34Z" 
    fill="currentColor"
  />
</svg>